<svg width="500" height="500" viewBox="0 0 500 500" fill="none" xmlns="http://www.w3.org/2000/svg">
<circle cx="138.5" cy="220.5" r="80.5" fill="#F3C105"/>
<path d="M230 289C230 330.421 202.5 360 152.5 360C106.5 360 75 330.421 75 289C75 247.579 109.698 214 152.5 214C195.302 214 230 247.579 230 289Z" fill="#2C80B9"/>
<path d="M336 240C336 288.601 294.139 328 242.5 328C190.861 328 149 288.601 149 240C149 191.399 190.861 152 242.5 152C294.139 152 336 191.399 336 240Z" fill="#2C80B9"/>
<path d="M441 308.5C441 336.943 415.704 360 384.5 360C353.296 360 328 336.943 328 308.5C328 280.057 353.296 257 384.5 257C415.704 257 441 280.057 441 308.5Z" fill="#2C80B9"/>
<ellipse cx="336" cy="244.5" rx="54" ry="53.5" fill="#2C80B9"/>
<rect x="168" y="281" width="203" height="79" fill="#2C80B9"/>
<rect x="285" y="195" width="66" height="21" fill="#2C80B9"/>
<rect x="368" y="356" width="18" height="4" fill="#2C80B9"/>
<path d="M152 355.02C152 355.009 152.009 355 152.02 355H386.98C386.991 355 387 355.009 387 355.02V359.98C387 359.991 386.991 360 386.98 360H152.02C152.009 360 152 359.991 152 359.98V355.02Z" fill="#2C80B9"/>
<path d="M125.664 283.872C125.664 298.92 137.112 309.432 151.224 309.432C161.664 309.432 170.664 304.248 174.48 294.456H164.616C161.952 299.784 157.2 302.304 151.224 302.304C141.288 302.304 134.088 295.176 134.088 283.872C134.088 272.568 141.288 265.512 151.224 265.512C157.2 265.512 161.952 268.032 164.616 273.36H174.48C170.664 263.568 161.664 258.312 151.224 258.312C137.112 258.312 125.664 268.896 125.664 283.872ZM211.736 258.888H184.088V309H211.736V302.304H192.296V286.968H209.576V280.272H192.296V265.584H211.736V258.888ZM254.749 258.888V296.184L230.053 258.888H221.845V309H230.053V271.632L254.749 309H262.957V258.888H254.749ZM307.504 294.816C307.504 276.528 281.008 283.584 281.008 272.28C281.008 267.456 284.68 265.152 289.432 265.296C294.616 265.44 297.568 268.536 297.856 271.92H306.928C306.208 263.352 299.44 258.312 289.864 258.312C279.64 258.312 272.656 263.784 272.656 272.568C272.656 291 299.224 283.152 299.224 295.248C299.224 299.496 295.984 302.592 290.224 302.592C284.536 302.592 281.656 299.28 281.296 295.176H272.512C272.512 304.032 280.216 309.504 290.224 309.504C301.384 309.504 307.504 302.304 307.504 294.816ZM317.189 309H325.397V258.96H317.189V309ZM362.741 273.936C362.741 278.904 359.861 282.432 353.453 282.432H344.381V265.656H353.453C359.861 265.656 362.741 268.896 362.741 273.936ZM336.173 258.96V309H344.381V288.984H350.645L362.165 309H371.957L359.573 288.264C367.997 286.176 371.165 279.84 371.165 273.936C371.165 265.8 365.333 258.96 353.453 258.96H336.173Z" fill="#23272A"/>
<path d="M323.759 242.732C323.759 242.732 320.121 241.244 319.173 238.082C319.173 238.082 317.281 235.142 312.931 233.437C308.581 231.732 308.233 230.295 308.233 230.295C308.233 230.295 304.548 228.682 306.658 234.957C306.658 234.957 311.662 237.442 312.799 241.157C313.936 244.873 308.251 245.954 308.251 245.954C308.251 245.954 305.787 247.399 312.952 249.877C320.117 252.355 322.158 255.443 322.158 255.443C322.158 255.443 322.989 256.143 324.08 255.358C324.08 255.358 323.841 253.859 327.112 255.364C327.112 255.364 333.321 257.048 330.352 252.088C330.352 252.088 326.678 252.006 325.745 250.743C324.812 249.48 329.957 245.672 340.726 241.298C340.726 241.298 343.754 235.09 339.847 235.009C335.939 234.927 323.759 242.732 323.759 242.732Z" fill="#23272A"/>
</svg>
