<svg width="1499" height="211" viewBox="0 0 1499 211" fill="none" xmlns="http://www.w3.org/2000/svg">
<path fill-rule="evenodd" clip-rule="evenodd" d="M0 188.686L36.1558 162.707C73.3079 131.26 154.454 152.293 225.788 168.017C297.123 183.741 356.672 198.94 428.007 209.879C499.341 220.133 570.675 157.238 642.01 136.045C713.344 115.536 785.656 136.045 856.99 162.707C928.325 188.686 999.659 220.133 1070.99 204.409C1142.33 188.686 1211.63 149.515 1285 131.26C1367.05 119.512 1388.74 111.758 1440.35 137.514L1476.71 168.017L1499 188.686V0H1462.84C1427.67 0 1356.33 0 1285 0C1213.66 0 1142.33 0 1070.99 0C999.659 0 928.325 0 856.99 0C785.656 0 713.344 0 642.01 0C570.675 0 499.341 0 428.007 0C356.672 0 285.338 0 214.003 0C142.669 0 71.3344 0 36.1558 0H0V188.686Z" fill="#232327"/>
</svg>
