<svg width="150" height="150" viewBox="0 0 150 150" fill="none" xmlns="http://www.w3.org/2000/svg">
<circle cx="93" cy="72" r="28" fill="#FFCB66"/>
<path d="M75.9184 28.0166L89.6668 37.9157L74.2197 44.8726L75.9184 28.0166Z" fill="#FFCB66"/>
<path d="M108.266 28.2216L109.575 45.1124L94.293 37.8003L108.266 28.2216Z" fill="#FFCB66"/>
<path d="M131.66 45.057L124.377 60.3531L114.771 46.3979L131.66 45.057Z" fill="#FFCB66"/>
<path d="M138.855 73.3804L123.929 81.3941L124.452 64.4608L138.855 73.3804Z" fill="#FFCB66"/>
<path d="M51.3984 45.1565L68.3082 46.1904L58.9579 60.3178L51.3984 45.1565Z" fill="#FFCB66"/>
<path d="M131.71 100.959L114.801 99.9162L124.158 85.7936L131.71 100.959Z" fill="#FFCB66"/>
<ellipse cx="28" cy="108.5" rx="18" ry="18.5" fill="#619ED5"/>
<ellipse cx="36" cy="90" rx="10" ry="22" fill="#619ED5"/>
<ellipse cx="53.5" cy="85" rx="21.5" ry="22" fill="#619ED5"/>
<ellipse cx="50.5" cy="77.5" rx="21.5" ry="15.5" fill="#619ED5"/>
<ellipse cx="42.5" cy="87.5" rx="15.5" ry="23.5" fill="#619ED5"/>
<ellipse cx="93" cy="108.5" rx="18" ry="18.5" fill="#619ED5"/>
<rect x="28" y="91" width="66" height="36" fill="#619ED5"/>
<ellipse cx="78" cy="91" rx="13" ry="11" fill="#619ED5"/>
</svg>
