<svg width="150" height="150" viewBox="0 0 150 150" fill="none" xmlns="http://www.w3.org/2000/svg">
<circle cx="75" cy="75" r="45" fill="#03749C"/>
<path d="M78.6708 52.52L77.8388 83.56H71.7588L70.9268 52.52H78.6708ZM75.0228 97.448C73.7001 97.448 72.5908 97 71.6948 96.104C70.7988 95.208 70.3508 94.0987 70.3508 92.776C70.3508 91.4533 70.7988 90.344 71.6948 89.448C72.5908 88.552 73.7001 88.104 75.0228 88.104C76.3028 88.104 77.3908 88.552 78.2868 89.448C79.1828 90.344 79.6308 91.4533 79.6308 92.776C79.6308 94.0987 79.1828 95.208 78.2868 96.104C77.3908 97 76.3028 97.448 75.0228 97.448Z" fill="#EA5C5C"/>
</svg>
