<svg width="150" height="150" viewBox="0 0 150 150" fill="none" xmlns="http://www.w3.org/2000/svg">
<circle cx="93" cy="61" r="28" fill="#FFCB66"/>
<path d="M75.9184 17.0166L89.6668 26.9157L74.2197 33.8726L75.9184 17.0166Z" fill="#FFCB66"/>
<path d="M108.266 17.2216L109.575 34.1124L94.293 26.8003L108.266 17.2216Z" fill="#FFCB66"/>
<path d="M131.66 34.057L124.377 49.3531L114.771 35.3979L131.66 34.057Z" fill="#FFCB66"/>
<path d="M138.855 62.3804L123.929 70.3941L124.452 53.4608L138.855 62.3804Z" fill="#FFCB66"/>
<path d="M51.3984 34.1565L68.3082 35.1904L58.9579 49.3178L51.3984 34.1565Z" fill="#FFCB66"/>
<path d="M131.71 89.9587L114.801 88.9162L124.158 74.7936L131.71 89.9587Z" fill="#FFCB66"/>
<ellipse cx="28" cy="97.5" rx="18" ry="18.5" fill="#619ED5"/>
<ellipse cx="36" cy="79" rx="10" ry="22" fill="#619ED5"/>
<ellipse cx="53.5" cy="74" rx="21.5" ry="22" fill="#619ED5"/>
<ellipse cx="50.5" cy="66.5" rx="21.5" ry="15.5" fill="#619ED5"/>
<ellipse cx="42.5" cy="76.5" rx="15.5" ry="23.5" fill="#619ED5"/>
<ellipse cx="93" cy="97.5" rx="18" ry="18.5" fill="#619ED5"/>
<rect x="28" y="80" width="66" height="36" fill="#619ED5"/>
<ellipse cx="78" cy="80" rx="13" ry="11" fill="#619ED5"/>
<rect x="23" y="120" width="88" height="8" rx="4" fill="#C4C4C4"/>
<rect x="29" y="142" width="88" height="8" rx="4" fill="#C4C4C4"/>
<rect x="6" y="131" width="88" height="8" rx="4" fill="#C4C4C4"/>
</svg>
