<svg width="150" height="150" viewBox="0 0 150 150" fill="none" xmlns="http://www.w3.org/2000/svg">
<circle cx="91" cy="57" r="28" fill="#FFCB66"/>
<path d="M73.9184 13.0166L87.6668 22.9157L72.2197 29.8726L73.9184 13.0166Z" fill="#FFCB66"/>
<path d="M106.266 13.2216L107.575 30.1124L92.293 22.8003L106.266 13.2216Z" fill="#FFCB66"/>
<path d="M129.66 30.057L122.377 45.3531L112.771 31.3979L129.66 30.057Z" fill="#FFCB66"/>
<path d="M136.855 58.3804L121.929 66.3941L122.452 49.4608L136.855 58.3804Z" fill="#FFCB66"/>
<path d="M49.3984 30.1565L66.3082 31.1904L56.9579 45.3178L49.3984 30.1565Z" fill="#FFCB66"/>
<path d="M129.71 85.9587L112.801 84.9162L122.158 70.7936L129.71 85.9587Z" fill="#FFCB66"/>
<ellipse cx="31" cy="87.5" rx="18" ry="18.5" fill="#619ED5"/>
<ellipse cx="39" cy="69" rx="10" ry="22" fill="#619ED5"/>
<ellipse cx="56.5" cy="64" rx="21.5" ry="22" fill="#619ED5"/>
<ellipse cx="53.5" cy="56.5" rx="21.5" ry="15.5" fill="#619ED5"/>
<ellipse cx="45.5" cy="66.5" rx="15.5" ry="23.5" fill="#619ED5"/>
<ellipse cx="96" cy="87.5" rx="18" ry="18.5" fill="#619ED5"/>
<rect x="31" y="70" width="66" height="36" fill="#619ED5"/>
<ellipse cx="81" cy="70" rx="13" ry="11" fill="#619ED5"/>
<rect x="31" y="107" width="2" height="3" fill="#7EA2C2"/>
<rect width="2" height="3" transform="matrix(-1 0 0 1 40 107)" fill="#7EA2C2"/>
<rect width="2" height="3" transform="matrix(-1 0 0 1 48 107)" fill="#7EA2C2"/>
<rect width="2" height="3" transform="matrix(-1 0 0 1 56 107)" fill="#7EA2C2"/>
<rect width="2" height="3" transform="matrix(-1 0 0 1 63 107)" fill="#7EA2C2"/>
<rect width="2" height="3" transform="matrix(-1 0 0 1 71 107)" fill="#7EA2C2"/>
<rect width="2" height="3" transform="matrix(-1 0 0 1 79 107)" fill="#7EA2C2"/>
<rect width="2" height="3" transform="matrix(-1 0 0 1 87 107)" fill="#7EA2C2"/>
<rect width="2" height="3" transform="matrix(-1 0 0 1 95 107)" fill="#7EA2C2"/>
<rect width="2" height="3" transform="matrix(-1 0 0 1 102 107)" fill="#7EA2C2"/>
<rect x="31" y="115" width="2" height="3" fill="#7EA2C2"/>
<rect width="2" height="3" transform="matrix(-1 0 0 1 40 115)" fill="#7EA2C2"/>
<rect width="2" height="3" transform="matrix(-1 0 0 1 48 115)" fill="#7EA2C2"/>
<rect width="2" height="3" transform="matrix(-1 0 0 1 56 115)" fill="#7EA2C2"/>
<rect width="2" height="3" transform="matrix(-1 0 0 1 63 115)" fill="#7EA2C2"/>
<rect width="2" height="3" transform="matrix(-1 0 0 1 71 115)" fill="#7EA2C2"/>
<rect width="2" height="3" transform="matrix(-1 0 0 1 79 115)" fill="#7EA2C2"/>
<rect width="2" height="3" transform="matrix(-1 0 0 1 87 115)" fill="#7EA2C2"/>
<rect width="2" height="3" transform="matrix(-1 0 0 1 95 115)" fill="#7EA2C2"/>
<rect width="2" height="3" transform="matrix(-1 0 0 1 102 115)" fill="#7EA2C2"/>
<rect x="31" y="123" width="2" height="3" fill="#7EA2C2"/>
<rect width="2" height="3" transform="matrix(-1 0 0 1 40 123)" fill="#7EA2C2"/>
<rect width="2" height="3" transform="matrix(-1 0 0 1 48 123)" fill="#7EA2C2"/>
<rect width="2" height="3" transform="matrix(-1 0 0 1 56 123)" fill="#7EA2C2"/>
<rect width="2" height="3" transform="matrix(-1 0 0 1 63 123)" fill="#7EA2C2"/>
<rect width="2" height="3" transform="matrix(-1 0 0 1 71 123)" fill="#7EA2C2"/>
<rect width="2" height="3" transform="matrix(-1 0 0 1 79 123)" fill="#7EA2C2"/>
<rect width="2" height="3" transform="matrix(-1 0 0 1 87 123)" fill="#7EA2C2"/>
<rect width="2" height="3" transform="matrix(-1 0 0 1 95 123)" fill="#7EA2C2"/>
<rect width="2" height="3" transform="matrix(-1 0 0 1 102 123)" fill="#7EA2C2"/>
<rect x="31" y="131" width="2" height="3" fill="#7EA2C2"/>
<rect width="2" height="3" transform="matrix(-1 0 0 1 40 131)" fill="#7EA2C2"/>
<rect width="2" height="3" transform="matrix(-1 0 0 1 48 131)" fill="#7EA2C2"/>
<rect width="2" height="3" transform="matrix(-1 0 0 1 56 131)" fill="#7EA2C2"/>
<rect width="2" height="3" transform="matrix(-1 0 0 1 63 131)" fill="#7EA2C2"/>
<rect width="2" height="3" transform="matrix(-1 0 0 1 71 131)" fill="#7EA2C2"/>
<rect width="2" height="3" transform="matrix(-1 0 0 1 79 131)" fill="#7EA2C2"/>
<rect width="2" height="3" transform="matrix(-1 0 0 1 87 131)" fill="#7EA2C2"/>
<rect width="2" height="3" transform="matrix(-1 0 0 1 95 131)" fill="#7EA2C2"/>
<rect width="2" height="3" transform="matrix(-1 0 0 1 102 131)" fill="#7EA2C2"/>
<rect x="31" y="139" width="2" height="3" fill="#7EA2C2"/>
<rect width="2" height="3" transform="matrix(-1 0 0 1 40 139)" fill="#7EA2C2"/>
<rect width="2" height="3" transform="matrix(-1 0 0 1 48 139)" fill="#7EA2C2"/>
<rect width="2" height="3" transform="matrix(-1 0 0 1 56 139)" fill="#7EA2C2"/>
<rect width="2" height="3" transform="matrix(-1 0 0 1 63 139)" fill="#7EA2C2"/>
<rect width="2" height="3" transform="matrix(-1 0 0 1 71 139)" fill="#7EA2C2"/>
<rect width="2" height="3" transform="matrix(-1 0 0 1 79 139)" fill="#7EA2C2"/>
<rect width="2" height="3" transform="matrix(-1 0 0 1 87 139)" fill="#7EA2C2"/>
<rect width="2" height="3" transform="matrix(-1 0 0 1 95 139)" fill="#7EA2C2"/>
<rect width="2" height="3" transform="matrix(-1 0 0 1 102 139)" fill="#7EA2C2"/>
</svg>
