<svg width="150" height="150" viewBox="0 0 150 150" fill="none" xmlns="http://www.w3.org/2000/svg">
<g clip-path="url(#clip0)">
<ellipse cx="42" cy="68.5" rx="18" ry="18.5" fill="#619ED5"/>
<ellipse cx="50" cy="50" rx="10" ry="22" fill="#619ED5"/>
<ellipse cx="67.5" cy="45" rx="21.5" ry="22" fill="#619ED5"/>
<ellipse cx="64.5" cy="37.5" rx="21.5" ry="15.5" fill="#619ED5"/>
<ellipse cx="56.5" cy="47.5" rx="15.5" ry="23.5" fill="#619ED5"/>
<ellipse cx="107" cy="68.5" rx="18" ry="18.5" fill="#619ED5"/>
<rect x="42" y="51" width="66" height="36" fill="#619ED5"/>
<ellipse cx="92" cy="51" rx="13" ry="11" fill="#619ED5"/>
<circle cx="46" cy="94" r="3" fill="#B4BFD5"/>
<circle cx="69" cy="97" r="3" fill="#B4BFD5"/>
<circle cx="82" cy="93" r="3" fill="#B4BFD5"/>
<circle cx="94" cy="99" r="3" fill="#B4BFD5"/>
<circle cx="79" cy="106" r="3" fill="#B4BFD5"/>
<circle cx="67" cy="109" r="3" fill="#B4BFD5"/>
<circle cx="59" cy="119" r="3" fill="#B4BFD5"/>
<circle cx="82" cy="125" r="3" fill="#B4BFD5"/>
<circle cx="73" cy="118" r="3" fill="#B4BFD5"/>
<circle cx="91" cy="113" r="3" fill="#B4BFD5"/>
<circle cx="98" cy="124" r="3" fill="#B4BFD5"/>
<circle cx="105" cy="118" r="3" fill="#B4BFD5"/>
<circle cx="101" cy="105" r="3" fill="#B4BFD5"/>
<circle cx="101" cy="91" r="3" fill="#B4BFD5"/>
<circle cx="55" cy="103" r="3" fill="#B4BFD5"/>
<circle cx="44" cy="109" r="3" fill="#B4BFD5"/>
<circle cx="49" cy="123" r="3" fill="#B4BFD5"/>
</g>
<defs>
<clipPath id="clip0">
<rect width="150" height="150" fill="white"/>
</clipPath>
</defs>
</svg>
