<svg width="150" height="150" viewBox="0 0 150 150" fill="none" xmlns="http://www.w3.org/2000/svg">
<circle cx="90.3891" cy="56.3123" r="25.8488" fill="#FFCB66"/>
<path d="M74.6198 15.708L87.3119 24.8465L73.0517 31.269L74.6198 15.708Z" fill="#FFCB66"/>
<path d="M104.483 15.8973L105.691 31.4904L91.5827 24.7401L104.483 15.8973Z" fill="#FFCB66"/>
<path d="M126.079 31.4393L119.355 45.5602L110.488 32.6771L126.079 31.4393Z" fill="#FFCB66"/>
<path d="M132.721 57.5866L118.942 64.9846L119.425 49.3522L132.721 57.5866Z" fill="#FFCB66"/>
<path d="M51.9836 31.5311L67.5943 32.4855L58.9624 45.5275L51.9836 31.5311Z" fill="#FFCB66"/>
<path d="M126.125 83.0462L110.515 82.0838L119.153 69.0462L126.125 83.0462Z" fill="#FFCB66"/>
<ellipse cx="34" cy="83.9611" rx="18" ry="18.5" fill="#619ED5"/>
<ellipse cx="42" cy="65.4611" rx="10" ry="22" fill="#619ED5"/>
<ellipse cx="59.5" cy="60.4611" rx="21.5" ry="22" fill="#619ED5"/>
<ellipse cx="56.5" cy="52.9611" rx="21.5" ry="15.5" fill="#619ED5"/>
<ellipse cx="48.5" cy="62.9611" rx="15.5" ry="23.5" fill="#619ED5"/>
<ellipse cx="99" cy="83.9611" rx="18" ry="18.5" fill="#619ED5"/>
<rect x="34" y="66.4611" width="66" height="36" fill="#619ED5"/>
<ellipse cx="84" cy="66.4611" rx="13" ry="11" fill="#619ED5"/>
<rect x="34" y="103.461" width="2" height="3" fill="#7EA2C2"/>
<rect width="2" height="3" transform="matrix(-1 0 0 1 51 103.461)" fill="#7EA2C2"/>
<rect width="2" height="3" transform="matrix(-1 0 0 1 66 103.461)" fill="#7EA2C2"/>
<rect width="2" height="3" transform="matrix(-1 0 0 1 82 103.461)" fill="#7EA2C2"/>
<rect width="2" height="3" transform="matrix(-1 0 0 1 98 103.461)" fill="#7EA2C2"/>
<rect x="34" y="111.461" width="2" height="3" fill="#7EA2C2"/>
<rect width="2" height="3" transform="matrix(-1 0 0 1 43 111.461)" fill="#7EA2C2"/>
<rect width="2" height="3" transform="matrix(-1 0 0 1 74 111.461)" fill="#7EA2C2"/>
<rect width="2" height="3" transform="matrix(-1 0 0 1 98 111.461)" fill="#7EA2C2"/>
<rect width="2" height="3" transform="matrix(-1 0 0 1 51 119.461)" fill="#7EA2C2"/>
<rect width="2" height="3" transform="matrix(-1 0 0 1 66 119.461)" fill="#7EA2C2"/>
<rect width="2" height="3" transform="matrix(-1 0 0 1 82 119.461)" fill="#7EA2C2"/>
<rect x="34" y="127.461" width="2" height="3" fill="#7EA2C2"/>
<rect width="2" height="3" transform="matrix(-1 0 0 1 43 127.461)" fill="#7EA2C2"/>
<rect width="2" height="3" transform="matrix(-1 0 0 1 59 127.461)" fill="#7EA2C2"/>
<rect width="2" height="3" transform="matrix(-1 0 0 1 74 127.461)" fill="#7EA2C2"/>
<rect width="2" height="3" transform="matrix(-1 0 0 1 90 127.461)" fill="#7EA2C2"/>
<rect width="2" height="3" transform="matrix(-1 0 0 1 43 135.461)" fill="#7EA2C2"/>
<rect width="2" height="3" transform="matrix(-1 0 0 1 59 135.461)" fill="#7EA2C2"/>
<rect width="2" height="3" transform="matrix(-1 0 0 1 66 135.461)" fill="#7EA2C2"/>
<rect width="2" height="3" transform="matrix(-1 0 0 1 90 135.461)" fill="#7EA2C2"/>
<rect width="2" height="3" transform="matrix(-1 0 0 1 98 127.461)" fill="#7EA2C2"/>
</svg>
