<svg width="150" height="150" viewBox="0 0 150 150" fill="none" xmlns="http://www.w3.org/2000/svg">
<circle cx="76.2953" cy="73.5995" r="36.5164" fill="#FFCB66"/>
<path d="M54.0183 16.2383L71.9484 29.1482L51.803 38.2212L54.0183 16.2383Z" fill="#FFCB66"/>
<path d="M96.2054 16.5057L97.912 38.5339L77.9817 28.9978L96.2054 16.5057Z" fill="#FFCB66"/>
<path d="M126.714 38.4617L117.216 58.4102L104.689 40.2105L126.714 38.4617Z" fill="#FFCB66"/>
<path d="M136.098 75.3999L116.631 85.8509L117.314 63.7672L136.098 75.3999Z" fill="#FFCB66"/>
<path d="M22.0403 38.5913L44.0933 39.9396L31.8992 58.364L22.0403 38.5913Z" fill="#FFCB66"/>
<path d="M126.779 111.366L104.727 110.007L116.93 91.5887L126.779 111.366Z" fill="#FFCB66"/>
<path d="M97.7881 132.475L80.087 119.253L100.388 110.535L97.7881 132.475Z" fill="#FFCB66"/>
<path d="M54.7243 133.474L52.1095 111.535L72.4166 120.24L54.7243 133.474Z" fill="#FFCB66"/>
<path d="M22.9562 110.605L32.9707 90.9106L45.0191 109.431L22.9562 110.605Z" fill="#FFCB66"/>
<path d="M14.1991 73.7546L33.5034 63.0075L33.1585 85.099L14.1991 73.7546Z" fill="#FFCB66"/>
</svg>
