<svg width="150" height="150" viewBox="0 0 150 150" fill="none" xmlns="http://www.w3.org/2000/svg">
<circle cx="86.2953" cy="70.5995" r="36.5164" fill="#FFCB66"/>
<path d="M64.0183 13.2383L81.9484 26.1482L61.803 35.2212L64.0183 13.2383Z" fill="#FFCB66"/>
<path d="M106.205 13.5057L107.912 35.5339L87.9817 25.9978L106.205 13.5057Z" fill="#FFCB66"/>
<path d="M136.714 35.4617L127.216 55.4102L114.689 37.2105L136.714 35.4617Z" fill="#FFCB66"/>
<path d="M146.098 72.3999L126.631 82.8509L127.314 60.7672L146.098 72.3999Z" fill="#FFCB66"/>
<path d="M32.0403 35.5913L54.0933 36.9396L41.8992 55.364L32.0403 35.5913Z" fill="#FFCB66"/>
<path d="M136.779 108.366L114.727 107.007L126.93 88.5887L136.779 108.366Z" fill="#FFCB66"/>
<path d="M107.788 129.475L90.087 116.253L110.388 107.535L107.788 129.475Z" fill="#FFCB66"/>
<path d="M64.7243 130.474L62.1095 108.535L82.4166 117.24L64.7243 130.474Z" fill="#FFCB66"/>
<path d="M32.9562 107.605L42.9707 87.9106L55.0191 106.431L32.9562 107.605Z" fill="#FFCB66"/>
<path d="M24.1991 70.7546L43.5034 60.0075L43.1585 82.099L24.1991 70.7546Z" fill="#FFCB66"/>
<rect x="31" y="92" width="80" height="10" rx="5" fill="#B4BFD5"/>
<ellipse cx="107" cy="86.5" rx="17" ry="15.5" fill="#B4BFD5"/>
<path d="M114 86C114 89.866 110.866 92 107 92C103.134 92 100 89.866 100 86C100 82.134 103.134 79 107 79C110.866 79 114 82.134 114 86Z" fill="#FFCB66"/>
<path d="M92.2593 78V78C92.696 81.9476 96.3144 84.7495 100.246 84.1841L101.339 84.027" stroke="#FFCB66"/>
<path d="M90.6875 79.0371L92 78L93.5 82L96.875 84.2222L102.5 84.2222L107 85.7778V92H89L90.6875 79.0371Z" fill="#FFCB66"/>
<rect width="74.8387" height="10" rx="5" transform="matrix(1 0 0 -1 3 122)" fill="#B4BFD5"/>
<ellipse rx="15.9032" ry="15.5" transform="matrix(1 0 0 -1 74.0968 127.5)" fill="#B4BFD5"/>
<path d="M80.6451 128C80.6451 124.134 77.7133 122 74.0967 122C70.4802 122 67.5483 124.134 67.5483 128C67.5483 131.866 70.4802 135 74.0967 135C77.7133 135 80.6451 131.866 80.6451 128Z" fill="#E5E5E5"/>
<path d="M58.5937 134.963L59.6562 136L64.9687 130.296L69.75 129.778L74 128.222V122H57L58.5937 134.963Z" fill="#E5E5E5"/>
</svg>
